<svg width="20" height="20" fill="none" xmlns="http://www.w3.org/2000/svg"><path fill-rule="evenodd" clip-rule="evenodd" d="M5.335 9.542c-.71-1.226.65-2.044 1.181-2.51.828-.76 1.182-1.927 0-3.679-1.3-1.926-2.245-2.451-4.136-.467-4.846 6.655 7.032 19.265 14.123 15.004 2.128-1.752 1.655-2.744-.177-4.145-1.655-1.284-2.837-1.05-3.664-.234-.532.467-1.478 1.752-2.66.993-1.713-1.11-3.664-3.211-4.668-4.962zm13.414.817c-.06.759-1.241.759-1.182-.059.06-4.26-3.191-7.705-7.505-7.88-.768-.059-.709-1.226.06-1.168 5.022.234 8.686 4.145 8.627 9.107zm-6.028-.233c0 .817-1.122.817-1.181.058-.06-1.168-.532-1.693-1.773-1.868-.769-.059-.65-1.226.118-1.168 1.832.234 2.777 1.226 2.837 2.978zm3.014.058c.06.759-1.123.817-1.182.058C14.435 7.265 12.9 5.69 9.944 5.34c-.768-.059-.65-1.226.118-1.168 3.546.409 5.555 2.51 5.673 6.013z" fill="#D7B56D"/></svg>