<svg width="56" height="56" fill="none" xmlns="http://www.w3.org/2000/svg"><rect width="56" height="56" rx="8" fill="#D7B56D"/><path d="M31.192 27.77h-6.395l3.199 9.471 3.196-9.471zM23 25.866l.798-5.069-5.47-1.878-4.091 4.077L23 25.866zm4.127 13.94L23.013 27.65 14 24.695 27.063 39.99l.063-.186zm3.456-18.794h-5.16l-.803 5.124h6.763l-.8-5.124zm2.406 6.64l-4.124 12.155.065.193L42 24.695l-9.012 2.956zm-8.136-8.273h6.296l5.056-1.735-4.663-1.6L24.719 16l-4.916 1.646 5.05 1.733zm8.15 6.487l8.763-2.87-4.091-4.076-5.471 1.878.798 5.068z" fill="#fff"/></svg>