<svg width="20" height="20" fill="none" xmlns="http://www.w3.org/2000/svg"><path fill-rule="evenodd" clip-rule="evenodd" d="M8.455 17.59c.317.32.64.637.974.938a.847.847 0 001.142 0 31.14 31.14 0 003.102-3.316c.773-.965 1.564-2.086 2.166-3.258.593-1.164 1.036-2.443 1.036-3.705A7.064 7.064 0 0014.861 3.3 6.814 6.814 0 0010 1.25 6.814 6.814 0 005.139 3.3a7.064 7.064 0 00-2.014 4.95c0 1.261.442 2.54 1.037 3.704.601 1.172 1.39 2.293 2.165 3.257a31.16 31.16 0 002.128 2.378zM7.422 8.25c0-.697.272-1.364.755-1.857A2.555 2.555 0 0110 5.625c.684 0 1.34.276 1.823.768.483.493.755 1.16.755 1.856 0 .697-.271 1.364-.755 1.856a2.555 2.555 0 01-1.823.77c-.684 0-1.34-.277-1.823-.77a2.649 2.649 0 01-.755-1.856z" fill="#D7B56D"/></svg>