<svg width="48" height="48" fill="none" xmlns="http://www.w3.org/2000/svg"><path d="M44.931 18.902a1.72 1.72 0 00-.499-.815 1.603 1.603 0 00-.842-.4l-12.523-1.872-5.546-11.88C25.253 3.375 24.626 3 24 3c-.626 0-1.253.374-1.52.935l-5.547 11.88L4.41 17.686a1.603 1.603 0 00-.842.401 1.72 1.72 0 00-.5.815c-.178.655 0 1.31.448 1.777l9.034 9.26-2.146 13.003c-.09.655.179 1.31.626 1.684.536.374 1.162.467 1.789.093L24 38.64l11.181 6.174c.269.093.537.187.805.187.358 0 .716-.094.984-.374a1.543 1.543 0 00.626-1.684L35.45 29.94l9.034-9.26c.447-.468.626-1.216.447-1.778z" fill="#D7B56D"/></svg>