<svg width="48" height="48" fill="none" xmlns="http://www.w3.org/2000/svg"><path d="M9.578 16.868h29.844c.18 0 .358-.038.523-.111a1.32 1.32 0 00.438-.315 1.393 1.393 0 00.358-1.01l-.017-.353c-.214-3.568-3.113-6.362-6.601-6.362h-1.697V7.358c0-.36-.14-.705-.387-.96A1.303 1.303 0 0031.105 6c-.35 0-.686.143-.934.398s-.387.6-.387.96v1.359H19.217V7.358c0-.36-.139-.705-.387-.96A1.303 1.303 0 0017.896 6c-.35 0-.686.143-.934.398a1.38 1.38 0 00-.386.96v1.359h-1.698c-3.488 0-6.387 2.795-6.602 6.364l-.017.35a1.392 1.392 0 00.358 1.012c.124.134.273.241.438.314.165.074.343.111.523.11zm31.37 4.041a1.376 1.376 0 00-.398-.938 1.301 1.301 0 00-.922-.386H9.373c-.345 0-.676.138-.923.386-.247.247-.39.584-.398.938a170.72 170.72 0 00.25 14.416c.205 3.41 2.861 6.14 6.175 6.353 6.675.43 13.37.43 20.044-.001 3.315-.212 5.97-2.943 6.177-6.352.284-4.7.367-9.55.249-14.416zm-9.843 6.827c-.526 0-1.03-.215-1.401-.597-.372-.382-.58-.9-.58-1.441 0-.54.208-1.059.58-1.441a1.954 1.954 0 011.4-.597c.526 0 1.03.215 1.402.597.371.382.58.9.58 1.44 0 .541-.209 1.06-.58 1.442a1.954 1.954 0 01-1.401.597zm1.981 4.754a2.07 2.07 0 01-.58 1.441 1.954 1.954 0 01-1.401.597c-.526 0-1.03-.215-1.401-.597-.372-.382-.58-.9-.58-1.44 0-.541.208-1.06.58-1.442a1.954 1.954 0 011.4-.596c.526 0 1.03.214 1.402.596.371.383.58.9.58 1.441zm-15.19-2.038c.526 0 1.03.215 1.401.597.372.383.58.9.58 1.441 0 .54-.208 1.059-.58 1.441a1.954 1.954 0 01-1.4.597c-.526 0-1.03-.215-1.402-.597-.371-.382-.58-.9-.58-1.44 0-.541.209-1.06.58-1.442a1.954 1.954 0 011.401-.596zm-1.981-4.754a2.05 2.05 0 01.58-1.441c.184-.19.403-.34.643-.442a1.934 1.934 0 012.16.442c.183.19.33.414.429.661a2.088 2.088 0 01-.43 2.22 1.954 1.954 0 01-1.4.598c-.526 0-1.03-.215-1.402-.597-.371-.382-.58-.9-.58-1.441zm6.604 6.792c0-.54.209-1.059.58-1.44a1.954 1.954 0 011.401-.598c.526 0 1.03.215 1.401.597.372.383.58.9.58 1.441 0 .54-.208 1.059-.58 1.441a1.954 1.954 0 01-1.4.597c-.526 0-1.03-.215-1.402-.597-.371-.382-.58-.9-.58-1.44zm1.982-4.754c-.526 0-1.03-.215-1.402-.597-.371-.382-.58-.9-.58-1.441 0-.54.209-1.059.58-1.441a1.954 1.954 0 011.401-.597c.526 0 1.03.215 1.401.597.372.382.58.9.58 1.44 0 .541-.208 1.06-.58 1.442a1.954 1.954 0 01-1.4.597z" fill="#D7B56D"/></svg>