<svg width="48" height="48" fill="none" xmlns="http://www.w3.org/2000/svg"><path d="M17.92 35.097a2.45 2.45 0 01-1.921-.918l-1.645-2.047-1.447-.691-3.779 7.542a1.21 1.21 0 00.503 1.608c.182.1.388.154.597.154h.003l3.505-.008 2.109 2.778a1.226 1.226 0 001.094.48 1.234 1.234 0 00.986-.671l3.834-7.652-1.202-.575H17.92zm20.952 3.886l-3.779-7.542-1.447.691L32 34.18a2.45 2.45 0 01-1.92.918h-2.638l-1.202.574 3.834 7.653a1.223 1.223 0 001.1.676c.383 0 .747-.178.98-.485l2.11-2.778 3.504.007h.003a1.235 1.235 0 001.044-.576 1.213 1.213 0 00.056-1.185z" fill="#D7B56D"/><path d="M30.08 33.879c.375 0 .728-.17.961-.46l1.82-2.264 2.63-1.257a1.225 1.225 0 00.664-.826l.649-2.824 1.82-2.265a1.216 1.216 0 00.237-1.031l-.65-2.824.65-2.824a1.211 1.211 0 00-.237-1.031l-1.82-2.264-.65-2.824a1.216 1.216 0 00-.664-.827L32.86 9.1l-1.819-2.265a1.226 1.226 0 00-.96-.458h-2.919l-2.63-1.257a1.236 1.236 0 00-1.065 0l-2.63 1.256H17.92a1.236 1.236 0 00-.96.46L15.14 9.1l-2.629 1.257a1.227 1.227 0 00-.664.826l-.65 2.824-1.82 2.265a1.214 1.214 0 00-.237 1.031l.65 2.824-.65 2.824a1.21 1.21 0 00.238 1.03l1.82 2.265.649 2.824a1.214 1.214 0 00.664.827l2.63 1.257 1.82 2.264a1.227 1.227 0 00.96.46h2.918l2.63 1.256a1.235 1.235 0 001.065 0l2.63-1.257h2.918zM24 30.792c-5.925 0-10.745-4.784-10.745-10.664S18.075 9.464 24 9.464c5.925 0 10.745 4.784 10.745 10.664S29.925 30.792 24 30.792z" fill="#D7B56D"/><path d="M24 10.683c-5.248 0-9.517 4.237-9.517 9.445s4.27 9.445 9.517 9.445c5.248 0 9.517-4.237 9.517-9.445s-4.27-9.445-9.517-9.445zm.254 12.241a1.226 1.226 0 01-.868.357 1.23 1.23 0 01-.767-.267l-3.07-2.437 1.534-1.904 2.212 1.756 3.52-3.494 1.737 1.724-4.298 4.265z" fill="#D7B56D"/></svg>