<svg width="20" height="20" fill="none" xmlns="http://www.w3.org/2000/svg"><path fill-rule="evenodd" clip-rule="evenodd" d="M1.25 6.667l7.47 5.81a2.084 2.084 0 002.56 0l7.47-5.81V15a1.249 1.249 0 01-1.25 1.25h-15A1.248 1.248 0 011.25 15V6.667z" fill="#D7B56D"/><path fill-rule="evenodd" clip-rule="evenodd" d="M18.75 5.009a1.25 1.25 0 01-.483.978l-7.5 5.833a1.25 1.25 0 01-1.534 0l-7.5-5.833a1.25 1.25 0 01-.483-.978V5A1.249 1.249 0 012.5 3.75h15A1.249 1.249 0 0118.75 5v.009z" fill="#D7B56D"/></svg>