<svg width="20" height="20" fill="none" xmlns="http://www.w3.org/2000/svg"><path d="M9.996 1.895c-4.542 0-8.234 3.745-8.234 8.353a8.36 8.36 0 002.05 5.494l-1.563 2.11a.641.641 0 00.173.919.62.62 0 00.327.096.63.63 0 00.5-.254l1.456-1.97A8.152 8.152 0 009.996 18.6c2.012 0 3.86-.741 5.292-1.958l1.455 1.971a.63.63 0 00.5.254.62.62 0 00.557-.352.643.643 0 00-.057-.662l-1.562-2.11a8.36 8.36 0 002.049-5.495c0-4.608-3.692-8.353-8.234-8.353zm2.412 9.969a.62.62 0 01-.519.285.58.58 0 01-.344-.108l-.768-.513a3.143 3.143 0 01-1.032-1.141 3.196 3.196 0 01-.374-1.502v-1.94c0-.348.281-.633.625-.633s.625.285.625.634v1.94c0 .64.312 1.229.843 1.584l.769.513a.64.64 0 01.175.88zM2.316 4.31l1.828-1.854a.634.634 0 00.144-.696.635.635 0 00-.342-.346.617.617 0 00-.686.146L1.433 3.414a.634.634 0 00-.144.696.635.635 0 00.341.346.617.617 0 00.686-.146zm14.416-2.75a.624.624 0 00-.686-.146.625.625 0 00-.342.346.64.64 0 00.145.696l1.827 1.854a.622.622 0 00.68.138.638.638 0 00.203-1.034L16.732 1.56z" fill="#D7B56D"/></svg>