<svg width="32" height="32" fill="none" xmlns="http://www.w3.org/2000/svg"><path d="M18.667 2h-5.334C8.2 2 4 6.408 4 11.796v4.198c0 3.779 2.1 7.242 5.333 8.852v4.688c0 .42.5.63.767.314l3.867-4.058h4.7C23.8 25.79 28 21.382 28 15.994v-4.198C28 6.408 23.8 2 18.667 2zm3.5 18.367l-1.367 1.4c-1.433 1.47-5.133-.21-8.4-3.709-3.267-3.498-4.7-7.417-3.333-8.886l1.333-1.4c.5-.524 1.333-.49 1.9.036l1.933 2.099c.7.734.4 1.994-.5 2.274-.633.21-1.066.944-.866 1.61.333 1.538 2.2 3.498 3.6 3.883.633.14 1.333-.21 1.566-.875.3-.945 1.5-1.225 2.167-.49l1.933 2.1c.534.489.534 1.364.034 1.958zM17.2 8.647c-.133 0-.267 0-.4.035-.233.035-.467-.175-.5-.42a.49.49 0 01.4-.524c.167-.035.333-.035.5-.035 2.433 0 4.433 2.099 4.433 4.653 0 .175 0 .35-.033.524-.033.245-.267.455-.5.42a.492.492 0 01-.4-.525c0-.14.033-.28.033-.42.034-2.029-1.566-3.708-3.533-3.708zm2.667 3.744c0 .245-.2.454-.434.454-.233 0-.433-.21-.433-.454 0-1.015-.8-1.855-1.767-1.855-.233 0-.433-.21-.433-.454 0-.245.2-.455.433-.455 1.434-.035 2.634 1.224 2.634 2.764zm3.4 1.504c-.067.245-.3.42-.567.35a.452.452 0 01-.3-.56c.1-.42.133-.84.133-1.294 0-3.08-2.4-5.598-5.333-5.598h-.4c-.233 0-.467-.175-.467-.42s.167-.49.4-.49c.167 0 .334-.035.467-.035 3.433 0 6.233 2.94 6.233 6.543a7.7 7.7 0 01-.166 1.504z" fill="#171924"/></svg>