<svg width="48" height="48" fill="none" xmlns="http://www.w3.org/2000/svg"><path d="M43.268 4.154A4.678 4.678 0 0040.224 3h-.42c-1.26.105-2.414.734-3.254 1.678l-2.152 2.517a20.15 20.15 0 012.624 2.202l.735-.734a1.075 1.075 0 111.522 1.52l-.84.84c-.367-.472-.787-.997-1.364-1.521l-.053-.053-.367.367-.315.472c.525.525.945.997 1.312 1.469l.053.052-.63.63c-.21.209-.473.314-.788.314-.262 0-.524-.105-.734-.315a1.075 1.075 0 010-1.52l.735-.734c-.84-.84-1.68-1.521-2.572-2.15l-6.823 8.127-.525.577-10.496 12.427a10.528 10.528 0 002.151 3.618L31.25 21.667l.63-.525 7.662-6.502.63-.524 3.15-2.674c.21-.157.42-.367.577-.577 1.679-1.992 1.417-5.034-.63-6.711zM3.118 44.266c-.157.157-.157.367 0 .577.053.105.158.157.315.157.105 0 .21-.052.315-.105l13.488-11.378c-.945-.996-1.627-2.15-2.152-3.356L3.118 44.266zM25.581 16.58l.787-.892a8.993 8.993 0 00-8.817 2.307c-2.992 2.989-4.041 7.341-2.73 11.326l.84-.996c-.892-3.408.106-7.026 2.677-9.596 1.837-1.887 4.566-2.726 7.243-2.15zm14.223-1.207c2.572 5.978 1.207 13.057-3.412 17.67-2.414 2.413-5.615 3.724-9.027 3.724-3.306 0-6.35-1.206-8.764-3.513l-.893.734c2.572 2.517 5.984 3.88 9.605 3.88 3.674 0 7.19-1.416 9.814-4.038 5.039-5.033 6.403-12.689 3.517-19.138l-.84.681z" fill="#D7B56D"/><path d="M29.57 28.378a.567.567 0 00.367.158.567.567 0 00.367-.158c1.785-1.782 2.52-4.247 1.995-6.711l-.945.786a6.255 6.255 0 01-1.784 5.139.57.57 0 000 .786zM7.684 10.288c6.77-6.764 17.424-7.865 25.402-2.621l.682-.84C25.371 1.218 14.14 2.372 6.95 9.503a.507.507 0 000 .734c.21.262.525.262.735.052z" fill="#D7B56D"/></svg>