<svg width="32" height="32" fill="none" xmlns="http://www.w3.org/2000/svg"><path d="M15.123 13.038h1.754c.377 0 .683.326.683.729v3.726c0 .402-.306.728-.682.728h-1.755a.662.662 0 01-.482-.214.755.755 0 01-.2-.515v-3.725c0-.402.305-.729.682-.729zm-1.16 3.805a5.16 5.16 0 01-2.15.986.224.224 0 01-.18-.04.266.266 0 01-.064-.355.248.248 0 01.066-.07.23.23 0 01.087-.037c1.268-.262 2.03-.939 2.24-1.145v-1.039a6.457 6.457 0 00-2.043-.895.234.234 0 01-.15-.112.264.264 0 01-.032-.192.263.263 0 01.104-.16.23.23 0 01.18-.035c.68.164 1.334.433 1.941.8v-.713c-.325-.573-3.57-5.849-11.58-4.663-.229.683-1.14 3.928 1.056 6.988a.266.266 0 01.032.249c-.01.028-1.01 2.8-.513 6.415 1.11.207 7.753 1.155 11.025-5.123a1.31 1.31 0 01-.02-.21v-.65zm15.655-7.669c-8.01-1.185-11.254 4.09-11.58 4.663v.712a6.893 6.893 0 011.94-.799.227.227 0 01.181.034.256.256 0 01.105.16.27.27 0 01-.032.193.24.24 0 01-.15.112 6.457 6.457 0 00-2.044.895v1.039c.21.207.973.883 2.24 1.145a.233.233 0 01.153.108.265.265 0 01.037.192.266.266 0 01-.1.163.232.232 0 01-.18.039 5.165 5.165 0 01-2.15-.986v.65c0 .071-.009.14-.02.209 3.272 6.279 9.915 5.33 11.025 5.124.497-3.616-.503-6.388-.513-6.416a.272.272 0 01.032-.248c2.196-3.06 1.285-6.306 1.056-6.988z" fill="#D7B56D"/></svg>