<svg display="none" xmlns="http://www.w3.org/2000/svg">  

  <symbol viewBox="0 0 20 20" id="gps">
     <path fill-rule="evenodd" clip-rule="evenodd" d="M8.45484 17.5893C8.77195 17.9104 9.09422 18.2271 9.42938 18.5281C9.5863 18.671 9.78946 18.75 10 18.75C10.2105 18.75 10.4137 18.671 10.5706 18.5281C11.6827 17.5012 12.7196 16.3929 13.673 15.2121C14.4464 14.2471 15.237 13.1263 15.8386 11.9539C16.4324 10.7902 16.875 9.51108 16.875 8.24943C16.875 6.39307 16.1507 4.61273 14.8614 3.30009C13.572 1.98744 11.8234 1.25 10 1.25C8.17664 1.25 6.42795 1.98744 5.13864 3.30009C3.84933 4.61273 3.125 6.39307 3.125 8.24943C3.125 9.51108 3.56672 10.7902 4.16227 11.9539C4.76297 13.1263 5.55273 14.2471 6.32703 15.2112C6.99589 16.0405 7.7061 16.8342 8.45484 17.5893ZM7.42188 8.24943C7.42188 7.55329 7.6935 6.88567 8.17699 6.39343C8.66048 5.90118 9.31624 5.62464 10 5.62464C10.6838 5.62464 11.3395 5.90118 11.823 6.39343C12.3065 6.88567 12.5781 7.55329 12.5781 8.24943C12.5781 8.94557 12.3065 9.61319 11.823 10.1054C11.3395 10.5977 10.6838 10.8742 10 10.8742C9.31624 10.8742 8.66048 10.5977 8.17699 10.1054C7.6935 9.61319 7.42188 8.94557 7.42188 8.24943Z"/>
  </symbol>

  <symbol viewBox="0 0 20 20" id="time">
     <path d="M9.99609 1.8948C5.4543 1.8948 1.76214 5.64028 1.76214 10.2477C1.76214 12.3517 2.53681 14.272 3.81126 15.7423L2.24943 17.8527C2.18054 17.947 2.13876 18.0589 2.12871 18.1759C2.11866 18.2928 2.14073 18.4103 2.19249 18.5153C2.24425 18.6203 2.32367 18.7088 2.42193 18.7708C2.5202 18.8328 2.63348 18.866 2.74922 18.8667C2.93664 18.8667 3.12406 18.778 3.249 18.6132L4.70462 16.6422C6.13526 17.859 7.98446 18.6005 9.99609 18.6005C12.0077 18.6005 13.8569 17.859 15.2876 16.6422L16.7432 18.6132C16.8681 18.778 17.0555 18.8667 17.243 18.8667C17.3587 18.866 17.472 18.8328 17.5703 18.7708C17.6685 18.7088 17.7479 18.6203 17.7997 18.5153C17.8515 18.4103 17.8735 18.2928 17.8635 18.1759C17.8534 18.0589 17.8116 17.947 17.7428 17.8527L16.1809 15.7423C17.4554 14.272 18.23 12.3517 18.23 10.2477C18.23 5.64028 14.5379 1.8948 9.99609 1.8948ZM12.4076 11.8637C12.2889 12.0475 12.0889 12.1489 11.889 12.1489C11.7703 12.1489 11.6516 12.1172 11.5454 12.0412L10.777 11.5278C10.345 11.2402 9.99033 10.848 9.74495 10.3867C9.49957 9.92533 9.37118 9.40931 9.37136 8.88509V6.94581C9.37136 6.59724 9.65249 6.31206 9.99609 6.31206C10.3397 6.31206 10.6208 6.59724 10.6208 6.94581V8.88509C10.6208 9.52518 10.9332 10.1146 11.4642 10.4695L12.2326 10.9828C12.52 11.1793 12.6012 11.5722 12.4076 11.8637ZM2.31628 4.31003L4.14362 2.4563C4.20328 2.39784 4.25088 2.32791 4.28362 2.25059C4.31636 2.17327 4.33359 2.09011 4.33432 2.00596C4.33504 1.92181 4.31923 1.83836 4.28782 1.76047C4.25641 1.68259 4.21002 1.61183 4.15136 1.55232C4.0927 1.49282 4.02295 1.44576 3.94617 1.41389C3.8694 1.38203 3.78713 1.36599 3.70418 1.36672C3.62123 1.36745 3.53925 1.38494 3.46303 1.41815C3.38681 1.45137 3.31788 1.49965 3.26025 1.56018L1.43291 3.4139C1.37324 3.47237 1.32565 3.5423 1.29291 3.61962C1.26017 3.69694 1.24293 3.7801 1.24221 3.86425C1.24149 3.9484 1.2573 4.03185 1.28871 4.10974C1.32012 4.18762 1.36651 4.25838 1.42517 4.31789C1.48382 4.37739 1.55358 4.42445 1.63035 4.45631C1.70713 4.48818 1.7894 4.50421 1.87235 4.50348C1.9553 4.50275 2.03728 4.48527 2.11349 4.45206C2.18971 4.41884 2.25865 4.37056 2.31628 4.31003ZM16.7319 1.56018C16.6743 1.49965 16.6054 1.45137 16.5292 1.41815C16.4529 1.38494 16.371 1.36745 16.288 1.36672C16.2051 1.36599 16.1228 1.38203 16.046 1.41389C15.9692 1.44576 15.8995 1.49282 15.8408 1.55232C15.7822 1.61183 15.7358 1.68259 15.7044 1.76047C15.673 1.83836 15.6571 1.92181 15.6579 2.00596C15.6586 2.09011 15.6758 2.17327 15.7086 2.25059C15.7413 2.32791 15.7889 2.39784 15.8486 2.4563L17.6759 4.31003C17.7338 4.36909 17.8026 4.41595 17.8784 4.44793C17.9542 4.47991 18.0355 4.49638 18.1176 4.49638C18.1997 4.49638 18.281 4.47991 18.3568 4.44793C18.4326 4.41595 18.5014 4.36909 18.5593 4.31003C18.6764 4.19118 18.7422 4.03002 18.7422 3.86197C18.7422 3.69392 18.6764 3.53275 18.5593 3.4139L16.7319 1.56018Z"/>
  </symbol>

  <symbol viewBox="0 0 20 20" id="mail">
     <path fill-rule="evenodd" clip-rule="evenodd" d="M1.25 6.66699L8.72084 12.4778C9.08661 12.7622 9.5367 12.9166 10 12.9166C10.4633 12.9166 10.9134 12.7622 11.2792 12.4778L18.75 6.66699V14.9998C18.75 15.3314 18.6183 15.6494 18.3838 15.8835C18.2678 15.9997 18.13 16.0918 17.9784 16.1547C17.8267 16.2176 17.6641 16.2499 17.4999 16.2499H2.50005C2.16847 16.2499 1.85034 16.1182 1.61621 15.8835C1.50008 15.7675 1.40795 15.6298 1.34511 15.4781C1.28228 15.3265 1.24995 15.164 1.25 14.9998V6.66699Z"/>
     <path fill-rule="evenodd" clip-rule="evenodd" d="M18.75 5.00888C18.7487 5.19774 18.7046 5.38384 18.621 5.5532C18.5374 5.72256 18.4165 5.87076 18.2674 5.98666L10.7676 11.82C10.5482 11.9907 10.2782 12.0834 10.0002 12.0834C9.7222 12.0834 9.45216 11.9907 9.23276 11.82L1.73245 5.98666C1.58336 5.87074 1.46249 5.72253 1.37893 5.55318C1.29536 5.38382 1.25128 5.19772 1.25 5.00888V5.00004C1.25 4.66846 1.38171 4.35052 1.61621 4.11639C1.7322 4.0002 1.86998 3.90803 2.02164 3.84516C2.1733 3.78229 2.33587 3.74995 2.50005 3.75H17.4999C17.8315 3.75 18.1497 3.88171 18.3838 4.11639C18.4999 4.23237 18.592 4.37012 18.6549 4.52175C18.7177 4.67338 18.75 4.83591 18.75 5.00004V5.00888Z"/>
  </symbol>

  <symbol viewBox="0 0 20 20" id="phone">
    <path fill-rule="evenodd" clip-rule="evenodd" d="M5.33458 9.54169C4.62542 8.31575 5.98462 7.4984 6.51644 7.03143C7.34364 6.27247 7.69831 5.10493 6.51644 3.35344C5.21635 1.42695 4.27093 0.901576 2.37971 2.88646C-2.4658 9.5415 9.41201 22.1508 16.5032 17.8896C18.6305 16.1383 18.1578 15.146 16.3259 13.7449C14.6713 12.4605 13.4893 12.6941 12.6617 13.5113C12.1299 13.9783 11.1844 15.2626 10.0026 14.5038C8.28888 13.3945 6.33836 11.293 5.3342 9.54169H5.33458ZM18.7489 10.3589C18.6898 11.1178 17.5079 11.1178 17.5671 10.3005C17.6262 6.03926 14.3759 2.59486 10.0622 2.41949C9.29397 2.36109 9.35308 1.19355 10.1214 1.25213C15.1442 1.48553 18.8082 5.39691 18.7493 10.3589H18.7489ZM12.7214 10.1255C12.7214 10.9426 11.5986 10.9426 11.5395 10.1839C11.4804 9.01631 11.0075 8.49094 9.76668 8.31594C8.99841 8.25736 9.11663 7.08982 9.8849 7.14822C11.7168 7.3818 12.6622 8.37433 12.7215 10.1256L12.7214 10.1255ZM15.7351 10.1839C15.7943 10.9428 14.6124 11.0012 14.5533 10.2422C14.435 7.26501 12.8987 5.68889 9.94402 5.33851C9.17575 5.28012 9.29397 4.11258 10.0622 4.17116C13.6078 4.57974 15.6171 6.68124 15.7351 10.1839Z" />
  </symbol>

   <symbol viewBox="0 0 8 8" id="arrowMenu">
      <g clip-path="url(#clip0_20_2943)">
        <path d="M7.46183 5.97052L4.13999 1.81294C4.12273 1.79321 4.10127 1.77736 4.0771 1.76649C4.05293 1.75563 4.02662 1.75 4 1.75C3.97338 1.75 3.94707 1.75563 3.9229 1.76649C3.89873 1.77736 3.87727 1.79321 3.86001 1.81294L0.538174 5.97052C0.517466 5.99598 0.504583 6.02663 0.501014 6.05892C0.497446 6.09121 0.503336 6.12382 0.518005 6.15299C0.532791 6.18206 0.555613 6.20654 0.583906 6.22368C0.612199 6.24082 0.644842 6.24993 0.678165 6.25L7.32183 6.25C7.35516 6.24993 7.3878 6.24082 7.41609 6.22368C7.44439 6.20654 7.46721 6.18206 7.48199 6.15299C7.49666 6.12382 7.50255 6.09121 7.49899 6.05892C7.49542 6.02663 7.48253 5.99598 7.46183 5.97052Z" fill="#D7B56D"/>
      </g>
      <defs>
        <clipPath id="clip0_20_2943">
          <rect width="8" height="8" fill="white" transform="translate(8 8) rotate(180)"/>
        </clipPath>
      </defs>
  </symbol>

  <symbol viewBox="0 0 16 16" id="next">
    <path d="M4.05896 14.9237L12.3741 8.27998C12.4136 8.24546 12.4453 8.20254 12.467 8.1542C12.4887 8.10586 12.5 8.05325 12.5 8C12.5 7.94675 12.4887 7.89414 12.467 7.8458C12.4453 7.79746 12.4136 7.75454 12.3741 7.72002L4.05896 1.07635C4.00804 1.03493 3.94674 1.00917 3.88216 1.00203C3.81758 0.994891 3.75236 1.00667 3.69402 1.03601C3.63588 1.06558 3.58692 1.11123 3.55264 1.16781C3.51837 1.2244 3.50014 1.28968 3.5 1.35633L3.5 14.6437C3.50014 14.7103 3.51837 14.7756 3.55264 14.8322C3.58692 14.8888 3.63588 14.9344 3.69402 14.964C3.75236 14.9933 3.81758 15.0051 3.88216 14.998C3.94674 14.9908 4.00804 14.9651 4.05896 14.9237Z"/>
  </symbol>

  <symbol viewBox="0 0 16 16" id="prev">
     <path d="M11.941 14.9237L3.62587 8.27998C3.58641 8.24546 3.55472 8.20254 3.53299 8.1542C3.51126 8.10586 3.5 8.05325 3.5 8C3.5 7.94675 3.51126 7.89414 3.53299 7.8458C3.55472 7.79746 3.58641 7.75454 3.62587 7.72002L11.941 1.07635C11.992 1.03493 12.0533 1.00917 12.1178 1.00203C12.1824 0.994891 12.2476 1.00667 12.306 1.03601C12.3641 1.06558 12.4131 1.11123 12.4474 1.16781C12.4816 1.2244 12.4999 1.28968 12.5 1.35633L12.5 14.6437C12.4999 14.7103 12.4816 14.7756 12.4474 14.8322C12.4131 14.8888 12.3641 14.9344 12.306 14.964C12.2476 14.9933 12.1824 15.0051 12.1178 14.998C12.0533 14.9908 11.992 14.9651 11.941 14.9237Z"/>
  </symbol>

  <symbol viewBox="0 0 32 32" id="bow">
     <path d="M15.1235 13.0382H16.8774C17.254 13.0382 17.5602 13.3645 17.5602 13.767V17.4926C17.5602 17.8946 17.2544 18.2209 16.8779 18.2209H15.1235C14.9425 18.2208 14.7689 18.144 14.6409 18.0073C14.5129 17.8707 14.4409 17.6854 14.4408 17.4921V13.767C14.4408 13.365 14.7465 13.0382 15.1235 13.0382ZM13.9624 16.8425C13.549 17.1683 12.8309 17.6183 11.8128 17.8287C11.7819 17.8351 11.7502 17.8349 11.7194 17.8282C11.6886 17.8215 11.6594 17.8083 11.6333 17.7895C11.6073 17.7708 11.585 17.7467 11.5677 17.7187C11.5504 17.6907 11.5384 17.6594 11.5324 17.6264C11.5264 17.5935 11.5266 17.5596 11.5329 17.5268C11.5392 17.4939 11.5515 17.4627 11.5691 17.4349C11.5867 17.4071 11.6092 17.3833 11.6354 17.3648C11.6616 17.3463 11.691 17.3335 11.7219 17.3272C12.9897 17.0647 13.7528 16.3885 13.9624 16.1816V15.1433C13.3324 14.726 12.6419 14.4235 11.919 14.2481C11.8883 14.2408 11.8592 14.2273 11.8334 14.2081C11.8077 14.1889 11.7857 14.1644 11.7688 14.1362C11.7518 14.1079 11.7403 14.0764 11.7348 14.0433C11.7293 14.0103 11.7299 13.9764 11.7367 13.9437C11.7434 13.9109 11.7562 13.8799 11.7742 13.8524C11.7921 13.8249 11.815 13.8014 11.8415 13.7833C11.868 13.7653 11.8975 13.7529 11.9285 13.7471C11.9594 13.7412 11.9911 13.7419 12.0218 13.7491C12.7017 13.9131 13.3555 14.1824 13.9624 14.5484V13.8359C13.6365 13.2634 10.3928 7.98719 2.38237 9.17307C2.1532 9.8559 1.24227 13.1015 3.43779 16.1612C3.46274 16.1962 3.47884 16.2375 3.48454 16.281C3.49024 16.3246 3.48534 16.369 3.47033 16.4099C3.46028 16.438 2.46083 19.2097 2.95745 22.825C4.06645 23.0324 10.7104 23.9803 13.982 17.7015C13.9697 17.6325 13.963 17.5624 13.9619 17.4921L13.9624 16.8425ZM29.6181 9.17409C21.6072 7.98872 18.3639 13.2639 18.0381 13.8369V14.5494C18.6451 14.1835 19.2988 13.9143 19.9786 13.7501C20.0406 13.7355 20.1055 13.7479 20.159 13.7844C20.2124 13.8209 20.2502 13.8785 20.2638 13.9447C20.2774 14.0109 20.2659 14.0801 20.2317 14.1372C20.1975 14.1943 20.1435 14.2345 20.0815 14.2491C19.3586 14.4245 18.668 14.7271 18.0381 15.1444V16.1826C18.2477 16.3895 19.0108 17.0657 20.2786 17.3282C20.3095 17.3346 20.3388 17.3474 20.3651 17.3658C20.3913 17.3843 20.4138 17.4081 20.4314 17.4359C20.449 17.4637 20.4613 17.4949 20.4676 17.5278C20.4739 17.5607 20.4741 17.5945 20.4681 17.6275C20.4621 17.6604 20.4501 17.6917 20.4328 17.7197C20.4155 17.7477 20.3932 17.7718 20.3671 17.7906C20.3411 17.8093 20.3119 17.8225 20.2811 17.8292C20.2503 17.8359 20.2186 17.8361 20.1877 17.8297C19.1696 17.6188 18.4515 17.1694 18.0381 16.8435V17.4931C18.0381 17.5652 18.0295 17.6341 18.018 17.7025C21.2896 23.9818 27.9326 23.0339 29.0426 22.8266C29.5396 19.2112 28.5402 16.4395 28.5297 16.4114C28.5147 16.3705 28.5098 16.3261 28.5155 16.2825C28.5212 16.239 28.5373 16.1977 28.5622 16.1627C30.7577 13.103 29.8468 9.85743 29.6176 9.1746L29.6181 9.17409Z" />
  </symbol>

  <symbol viewBox="0 0 32 32" id="viber">
     <path d="M18.6667 2H13.3333C8.2 2 4 6.40816 4 11.7959V15.9942C4 19.7726 6.1 23.2362 9.33333 24.8455V29.5335C9.33333 29.9534 9.83333 30.1633 10.1 29.8484L13.9667 25.7901H18.6667C23.8 25.7901 28 21.3819 28 15.9942V11.7959C28 6.40816 23.8 2 18.6667 2ZM22.1667 20.3673L20.8 21.7668C19.3667 23.2362 15.6667 21.5569 12.4 18.0583C9.13333 14.5598 7.7 10.6414 9.06667 9.17201L10.4 7.77259C10.9 7.24781 11.7333 7.2828 12.3 7.80758L14.2333 9.9067C14.9333 10.6414 14.6333 11.9009 13.7333 12.1808C13.1 12.3907 12.6667 13.1254 12.8667 13.7901C13.2 15.3294 15.0667 17.2886 16.4667 17.6735C17.1 17.8134 17.8 17.4636 18.0333 16.7988C18.3333 15.8542 19.5333 15.5743 20.2 16.309L22.1333 18.4082C22.6667 18.898 22.6667 19.7726 22.1667 20.3673ZM17.2 8.64723C17.0667 8.64723 16.9333 8.64723 16.8 8.68222C16.5667 8.7172 16.3333 8.50729 16.3 8.26239C16.2667 8.01749 16.4667 7.77259 16.7 7.73761C16.8667 7.70262 17.0333 7.70262 17.2 7.70262C19.6333 7.70262 21.6333 9.80175 21.6333 12.3557C21.6333 12.5306 21.6333 12.7055 21.6 12.8805C21.5667 13.1254 21.3333 13.3353 21.1 13.3003C20.8667 13.2653 20.6667 13.0204 20.7 12.7755C20.7 12.6356 20.7333 12.4956 20.7333 12.3557C20.7667 10.3265 19.1667 8.64723 17.2 8.64723ZM19.8667 12.3907C19.8667 12.6356 19.6667 12.8455 19.4333 12.8455C19.2 12.8455 19 12.6356 19 12.3907C19 11.3761 18.2 10.5364 17.2333 10.5364C17 10.5364 16.8 10.3265 16.8 10.0816C16.8 9.83673 17 9.62682 17.2333 9.62682C18.6667 9.59184 19.8667 10.8513 19.8667 12.3907ZM23.2667 13.895C23.2 14.1399 22.9667 14.3149 22.7 14.2449C22.4667 14.1749 22.3333 13.93 22.4 13.6851C22.5 13.2653 22.5333 12.8455 22.5333 12.3907C22.5333 9.31195 20.1333 6.793 17.2 6.793H16.8C16.5667 6.793 16.3333 6.61808 16.3333 6.37318C16.3333 6.12828 16.5 5.88338 16.7333 5.88338C16.9 5.88338 17.0667 5.8484 17.2 5.8484C20.6333 5.8484 23.4333 8.78717 23.4333 12.3907C23.4333 12.8805 23.3667 13.4052 23.2667 13.895Z"/>
  </symbol>

  <symbol viewBox="0 0 32 32" id="whats">
    <path d="M9.228 28.247C11.3018 29.3984 13.635 30.0017 16.007 30C23.737 30 30 23.723 30 15.993C30 8.263 23.737 2 16.007 2C8.277 2 2 8.263 2 15.993C2 18.479 2.652 20.789 3.78 22.813L2 30L9.228 28.247ZM10.002 9.812C10.1651 9.65942 10.3627 9.54875 10.5781 9.48952C10.7934 9.4303 11.0198 9.42428 11.238 9.472L11.687 9.567C12.135 9.662 12.502 9.961 12.678 10.369L13.561 12.325C13.6681 12.5603 13.7047 12.8216 13.6661 13.0772C13.6276 13.3328 13.5157 13.5718 13.344 13.765L12.801 14.404C12.7126 14.5078 12.6575 14.6358 12.6429 14.7714C12.6283 14.9069 12.6548 15.0437 12.719 15.164C14.322 18.044 16.428 18.982 17.365 19.267C17.5 19.3106 17.6458 19.3076 17.7789 19.2585C17.912 19.2093 18.0247 19.1169 18.099 18.996L18.493 18.384C18.873 17.8 19.621 17.596 20.449 18.004L22.079 18.819C22.705 19.118 22.989 19.851 22.759 20.504C21.93 22.908 19.811 22.609 19.811 22.609C15.111 22.487 11.428 18.153 9.839 15.925C9.105 14.879 8.657 13.615 8.793 12.325C8.929 11.048 9.526 10.246 10.002 9.812Z"/>
  </symbol>

  <symbol viewBox="0 0 32 32" id="tg">
    <path d="M16 30C23.732 30 30 23.732 30 16C30 8.26801 23.732 2 16 2C8.26801 2 2 8.26801 2 16C2 23.732 8.26801 30 16 30Z" fill="#171924"/>
    <path fill-rule="evenodd" clip-rule="evenodd" d="M8.3372 15.8522C12.4185 14.074 15.14 12.9018 16.5017 12.3354C20.3896 10.7183 21.1975 10.4374 21.724 10.4281C21.8399 10.4261 22.0988 10.4548 22.2665 10.5909C22.5154 10.7928 22.5168 11.2311 22.4892 11.5211C22.2785 13.7349 21.3668 19.107 20.903 21.5864C20.7067 22.6355 20.3203 22.9873 19.9463 23.0217C19.1333 23.0965 18.5159 22.4844 17.7285 21.9683C16.4963 21.1606 15.8002 20.6578 14.6041 19.8696C13.2219 18.9587 14.1179 18.4581 14.9057 17.6399C15.1118 17.4258 18.6939 14.1676 18.7633 13.872C18.772 13.8351 18.78 13.6972 18.6981 13.6245C18.6163 13.5518 18.4955 13.5766 18.4083 13.5964C18.2847 13.6245 16.3163 14.9255 12.503 17.4996C11.9443 17.8832 11.4382 18.0702 10.9848 18.0604C10.4849 18.0496 9.52337 17.7777 8.80855 17.5454C7.9318 17.2604 7.23498 17.1097 7.29568 16.6257C7.32729 16.3735 7.67444 16.1157 8.3372 15.8522Z" fill="white"/>
  </symbol>

</svg>  