<svg width="56" height="56" viewBox="0 0 56 56" fill="none" xmlns="http://www.w3.org/2000/svg">
<rect width="56" height="56" rx="8" fill="#D7B56D"/>
<path d="M31.1922 27.7695H24.797L27.9957 37.2413L31.1922 27.7695ZM22.9993 25.8658L23.7974 20.797L18.3263 18.9193L14.2357 22.9956L22.9993 25.8658ZM27.1261 39.8053L23.0128 27.6509L14 24.6949L27.063 39.9907L27.1261 39.8053ZM30.5823 21.0119H25.4229L24.6192 26.1364H31.3817L30.5823 21.0119ZM32.9879 27.6511L28.8639 39.8068L28.9293 40L42 24.6951L32.9879 27.6511ZM24.8525 19.3788H31.1481L36.2036 17.6438L31.5408 16.0438L24.7188 16L19.8026 17.6456L24.8525 19.3788ZM33.0013 25.8658L41.7646 22.9956L37.6739 18.9197L32.2028 20.7976L33.0013 25.8658Z" fill="white"/>
</svg>
