<svg width="16" height="16" viewBox="0 0 16 16" fill="none" xmlns="http://www.w3.org/2000/svg">
<path d="M11.941 14.9237L3.62587 8.27998C3.58641 8.24546 3.55472 8.20254 3.53299 8.1542C3.51126 8.10586 3.5 8.05325 3.5 8C3.5 7.94675 3.51126 7.89414 3.53299 7.8458C3.55472 7.79746 3.58641 7.75454 3.62587 7.72002L11.941 1.07635C11.992 1.03493 12.0533 1.00917 12.1178 1.00203C12.1824 0.994891 12.2476 1.00667 12.306 1.03601C12.3641 1.06558 12.4131 1.11123 12.4474 1.16781C12.4816 1.2244 12.4999 1.28968 12.5 1.35633L12.5 14.6437C12.4999 14.7103 12.4816 14.7756 12.4474 14.8322C12.4131 14.8888 12.3641 14.9344 12.306 14.964C12.2476 14.9933 12.1824 15.0051 12.1178 14.998C12.0533 14.9908 11.992 14.9651 11.941 14.9237Z" fill="#171924"/>
</svg>
