<svg width="20" height="20" viewBox="0 0 20 20" fill="none" xmlns="http://www.w3.org/2000/svg">
<path fill-rule="evenodd" clip-rule="evenodd" d="M5.33458 9.54169C4.62542 8.31575 5.98462 7.4984 6.51644 7.03143C7.34364 6.27247 7.69831 5.10493 6.51644 3.35344C5.21635 1.42695 4.27093 0.901576 2.37971 2.88646C-2.4658 9.5415 9.41201 22.1508 16.5032 17.8896C18.6305 16.1383 18.1578 15.146 16.3259 13.7449C14.6713 12.4605 13.4893 12.6941 12.6617 13.5113C12.1299 13.9783 11.1844 15.2626 10.0026 14.5038C8.28888 13.3945 6.33836 11.293 5.3342 9.54169H5.33458ZM18.7489 10.3589C18.6898 11.1178 17.5079 11.1178 17.5671 10.3005C17.6262 6.03926 14.3759 2.59486 10.0622 2.41949C9.29397 2.36109 9.35308 1.19355 10.1214 1.25213C15.1442 1.48553 18.8082 5.39691 18.7493 10.3589H18.7489ZM12.7214 10.1255C12.7214 10.9426 11.5986 10.9426 11.5395 10.1839C11.4804 9.01631 11.0075 8.49094 9.76668 8.31594C8.99841 8.25736 9.11663 7.08982 9.8849 7.14822C11.7168 7.3818 12.6622 8.37433 12.7215 10.1256L12.7214 10.1255ZM15.7351 10.1839C15.7943 10.9428 14.6124 11.0012 14.5533 10.2422C14.435 7.26501 12.8987 5.68889 9.94402 5.33851C9.17575 5.28012 9.29397 4.11258 10.0622 4.17116C13.6078 4.57974 15.6171 6.68124 15.7351 10.1839Z" fill="#D7B56D"/>
</svg>
