<svg width="8" height="8" viewBox="0 0 8 8" fill="none" xmlns="http://www.w3.org/2000/svg">
<g clip-path="url(#clip0_20_2943)">
<path d="M7.46183 5.97052L4.13999 1.81294C4.12273 1.79321 4.10127 1.77736 4.0771 1.76649C4.05293 1.75563 4.02662 1.75 4 1.75C3.97338 1.75 3.94707 1.75563 3.9229 1.76649C3.89873 1.77736 3.87727 1.79321 3.86001 1.81294L0.538174 5.97052C0.517466 5.99598 0.504583 6.02663 0.501014 6.05892C0.497446 6.09121 0.503336 6.12382 0.518005 6.15299C0.532791 6.18206 0.555613 6.20654 0.583906 6.22368C0.612199 6.24082 0.644842 6.24993 0.678165 6.25L7.32183 6.25C7.35516 6.24993 7.3878 6.24082 7.41609 6.22368C7.44439 6.20654 7.46721 6.18206 7.48199 6.15299C7.49666 6.12382 7.50255 6.09121 7.49899 6.05892C7.49542 6.02663 7.48253 5.99598 7.46183 5.97052Z" fill="#D7B56D"/>
</g>
<defs>
<clipPath id="clip0_20_2943">
<rect width="8" height="8" fill="white" transform="translate(8 8) rotate(180)"/>
</clipPath>
</defs>
</svg>
