<svg width="20" height="20" viewBox="0 0 20 20" fill="none" xmlns="http://www.w3.org/2000/svg">
<path d="M9.99609 1.8948C5.4543 1.8948 1.76214 5.64028 1.76214 10.2477C1.76214 12.3517 2.53681 14.272 3.81126 15.7423L2.24943 17.8527C2.18054 17.947 2.13876 18.0589 2.12871 18.1759C2.11866 18.2928 2.14073 18.4103 2.19249 18.5153C2.24425 18.6203 2.32367 18.7088 2.42193 18.7708C2.5202 18.8328 2.63348 18.866 2.74922 18.8667C2.93664 18.8667 3.12406 18.778 3.249 18.6132L4.70462 16.6422C6.13526 17.859 7.98446 18.6005 9.99609 18.6005C12.0077 18.6005 13.8569 17.859 15.2876 16.6422L16.7432 18.6132C16.8681 18.778 17.0555 18.8667 17.243 18.8667C17.3587 18.866 17.472 18.8328 17.5703 18.7708C17.6685 18.7088 17.7479 18.6203 17.7997 18.5153C17.8515 18.4103 17.8735 18.2928 17.8635 18.1759C17.8534 18.0589 17.8116 17.947 17.7428 17.8527L16.1809 15.7423C17.4554 14.272 18.23 12.3517 18.23 10.2477C18.23 5.64028 14.5379 1.8948 9.99609 1.8948ZM12.4076 11.8637C12.2889 12.0475 12.0889 12.1489 11.889 12.1489C11.7703 12.1489 11.6516 12.1172 11.5454 12.0412L10.777 11.5278C10.345 11.2402 9.99033 10.848 9.74495 10.3867C9.49957 9.92533 9.37118 9.40931 9.37136 8.88509V6.94581C9.37136 6.59724 9.65249 6.31206 9.99609 6.31206C10.3397 6.31206 10.6208 6.59724 10.6208 6.94581V8.88509C10.6208 9.52518 10.9332 10.1146 11.4642 10.4695L12.2326 10.9828C12.52 11.1793 12.6012 11.5722 12.4076 11.8637ZM2.31628 4.31003L4.14362 2.4563C4.20328 2.39784 4.25088 2.32791 4.28362 2.25059C4.31636 2.17327 4.33359 2.09011 4.33432 2.00596C4.33504 1.92181 4.31923 1.83836 4.28782 1.76047C4.25641 1.68259 4.21002 1.61183 4.15136 1.55232C4.0927 1.49282 4.02295 1.44576 3.94617 1.41389C3.8694 1.38203 3.78713 1.36599 3.70418 1.36672C3.62123 1.36745 3.53925 1.38494 3.46303 1.41815C3.38681 1.45137 3.31788 1.49965 3.26025 1.56018L1.43291 3.4139C1.37324 3.47237 1.32565 3.5423 1.29291 3.61962C1.26017 3.69694 1.24293 3.7801 1.24221 3.86425C1.24149 3.9484 1.2573 4.03185 1.28871 4.10974C1.32012 4.18762 1.36651 4.25838 1.42517 4.31789C1.48382 4.37739 1.55358 4.42445 1.63035 4.45631C1.70713 4.48818 1.7894 4.50421 1.87235 4.50348C1.9553 4.50275 2.03728 4.48527 2.11349 4.45206C2.18971 4.41884 2.25865 4.37056 2.31628 4.31003ZM16.7319 1.56018C16.6743 1.49965 16.6054 1.45137 16.5292 1.41815C16.4529 1.38494 16.371 1.36745 16.288 1.36672C16.2051 1.36599 16.1228 1.38203 16.046 1.41389C15.9692 1.44576 15.8995 1.49282 15.8408 1.55232C15.7822 1.61183 15.7358 1.68259 15.7044 1.76047C15.673 1.83836 15.6571 1.92181 15.6579 2.00596C15.6586 2.09011 15.6758 2.17327 15.7086 2.25059C15.7413 2.32791 15.7889 2.39784 15.8486 2.4563L17.6759 4.31003C17.7338 4.36909 17.8026 4.41595 17.8784 4.44793C17.9542 4.47991 18.0355 4.49638 18.1176 4.49638C18.1997 4.49638 18.281 4.47991 18.3568 4.44793C18.4326 4.41595 18.5014 4.36909 18.5593 4.31003C18.6764 4.19118 18.7422 4.03002 18.7422 3.86197C18.7422 3.69392 18.6764 3.53275 18.5593 3.4139L16.7319 1.56018Z" fill="#D7B56D"/>
</svg>
