<svg width="16" height="16" viewBox="0 0 16 16" fill="none" xmlns="http://www.w3.org/2000/svg">
<path d="M4.05896 14.9237L12.3741 8.27998C12.4136 8.24546 12.4453 8.20254 12.467 8.1542C12.4887 8.10586 12.5 8.05325 12.5 8C12.5 7.94675 12.4887 7.89414 12.467 7.8458C12.4453 7.79746 12.4136 7.75454 12.3741 7.72002L4.05896 1.07635C4.00804 1.03493 3.94674 1.00917 3.88216 1.00203C3.81758 0.994891 3.75236 1.00667 3.69402 1.03601C3.63588 1.06558 3.58692 1.11123 3.55264 1.16781C3.51837 1.2244 3.50014 1.28968 3.5 1.35633L3.5 14.6437C3.50014 14.7103 3.51837 14.7756 3.55264 14.8322C3.58692 14.8888 3.63588 14.9344 3.69402 14.964C3.75236 14.9933 3.81758 15.0051 3.88216 14.998C3.94674 14.9908 4.00804 14.9651 4.05896 14.9237Z" fill="#171924"/>
</svg>
