<svg width="8" height="8" viewBox="0 0 8 8" fill="none" xmlns="http://www.w3.org/2000/svg">
<path d="M0.538174 2.02948L3.86001 6.18706C3.87727 6.20679 3.89873 6.22264 3.9229 6.23351C3.94707 6.24437 3.97338 6.25 4 6.25C4.02662 6.25 4.05293 6.24437 4.0771 6.23351C4.10127 6.22264 4.12273 6.20679 4.13999 6.18706L7.46183 2.02948C7.48253 2.00402 7.49542 1.97337 7.49899 1.94108C7.50255 1.90879 7.49666 1.87618 7.482 1.84701C7.46721 1.81794 7.44439 1.79346 7.41609 1.77632C7.3878 1.75918 7.35516 1.75007 7.32184 1.75L0.678166 1.75C0.644843 1.75007 0.6122 1.75918 0.583907 1.77632C0.555613 1.79346 0.532792 1.81794 0.518006 1.84701C0.503337 1.87618 0.497446 1.90879 0.501015 1.94108C0.504584 1.97337 0.517466 2.00402 0.538174 2.02948Z" fill="#171924"/>
</svg>
