<svg width="48" height="48" viewBox="0 0 48 48" fill="none" xmlns="http://www.w3.org/2000/svg">
<path d="M44.9314 18.902C44.8435 18.5857 44.6701 18.3027 44.432 18.087C44.194 17.8713 43.9015 17.7321 43.5896 17.6861L31.0666 15.8151L25.5208 3.93528C25.2525 3.37448 24.626 3 24 3C23.374 3 22.7475 3.37448 22.4792 3.93528L16.9334 15.8151L4.4104 17.6861C4.09853 17.7321 3.806 17.8713 3.56798 18.087C3.32995 18.3027 3.15655 18.5857 3.06862 18.902C2.88957 19.5566 3.06862 20.2117 3.51603 20.6792L12.5504 29.9394L10.4036 42.9422C10.3142 43.5969 10.5826 44.2515 11.0296 44.6255C11.5663 45 12.1923 45.0934 12.8188 44.7194L24 38.6389L35.1812 44.8128C35.4496 44.9062 35.7179 45 35.9863 45C36.3444 45 36.7021 44.9062 36.9704 44.6255C37.5071 44.2515 37.7751 43.5969 37.5964 42.9422L35.4496 29.9399L44.484 20.6796C44.9314 20.2117 45.1104 19.4637 44.9314 18.902Z" fill="#D7B56D"/>
</svg>
