<svg width="48" height="48" viewBox="0 0 48 48" fill="none" xmlns="http://www.w3.org/2000/svg">
<path d="M17.9192 35.0973C17.1675 35.0973 16.4675 34.7628 15.999 34.1795L14.3541 32.1325L12.9069 31.4408L9.1284 38.9832C9.03532 39.169 8.99158 39.3753 9.00134 39.5826C9.01109 39.7899 9.07401 39.9913 9.18413 40.1677C9.29426 40.3441 9.44794 40.4896 9.63062 40.5906C9.81329 40.6915 10.0189 40.7445 10.228 40.7445H10.2308L13.7356 40.7367L15.8448 43.5147C15.9708 43.6807 16.1374 43.8119 16.3288 43.8959C16.5202 43.9799 16.7301 44.014 16.9386 43.9948C17.147 43.9757 17.347 43.904 17.5197 43.7866C17.6924 43.6692 17.8319 43.5099 17.9251 43.3238L21.7586 35.6715L20.5573 35.0973H17.9192ZM38.8716 38.9831L35.0931 31.4407L33.6459 32.1324L32.001 34.1795C31.5324 34.7627 30.8325 35.0972 30.0808 35.0972H27.4426L26.2413 35.6714L30.0748 43.3238C30.1766 43.5269 30.3334 43.6977 30.5277 43.8172C30.722 43.9367 30.946 43.9999 31.1745 43.9999C31.5578 43.9999 31.9219 43.8219 32.1551 43.5147L34.2643 40.7366L37.7691 40.7444H37.7719C37.981 40.7445 38.1867 40.6915 38.3694 40.5906C38.5521 40.4896 38.7058 40.3441 38.8159 40.1677C38.926 39.9913 38.9889 39.7899 38.9987 39.5826C39.0084 39.3753 38.9647 39.1689 38.8716 38.9831Z" fill="#D7B56D"/>
<path d="M30.0809 33.8785C30.4546 33.8785 30.8081 33.7097 31.041 33.4197L32.8607 31.1551L35.4901 29.8983C35.6563 29.8189 35.8024 29.7033 35.9174 29.5601C36.0324 29.417 36.1135 29.25 36.1546 29.0715L36.804 26.2476L38.6237 23.983C38.7387 23.8398 38.8197 23.6728 38.8608 23.4943C38.9018 23.3158 38.9018 23.1304 38.8608 22.9519L38.2114 20.1281L38.8608 17.3042C38.9018 17.1257 38.9018 16.9403 38.8608 16.7618C38.8197 16.5832 38.7387 16.4162 38.6237 16.273L36.804 14.0085L36.1546 11.1846C36.1135 11.0061 36.0324 10.8391 35.9174 10.6959C35.8024 10.5528 35.6563 10.4372 35.4901 10.3578L32.8607 9.10101L31.041 6.83642C30.926 6.69328 30.7799 6.5777 30.6137 6.49826C30.4475 6.41882 30.2654 6.37757 30.0809 6.37757H27.1624L24.5329 5.12066C24.3667 5.04124 24.1846 5 24.0001 5C23.8156 5 23.6335 5.04124 23.4672 5.12066L20.8378 6.37741H17.9193C17.7348 6.37741 17.5527 6.41865 17.3865 6.49809C17.2203 6.57753 17.0742 6.69312 16.9592 6.83627L15.1395 9.10086L12.5101 10.3576C12.3439 10.4371 12.1978 10.5526 12.0828 10.6958C11.9678 10.8389 11.8867 11.006 11.8457 11.1845L11.1962 14.0084L9.37654 16.2729C9.26151 16.416 9.18046 16.5831 9.13942 16.7616C9.09837 16.9401 9.09839 17.1255 9.13946 17.304L9.78884 20.1279L9.13946 22.9518C9.0984 23.1303 9.0984 23.3157 9.13944 23.4942C9.18049 23.6727 9.26152 23.8397 9.37654 23.9828L11.1962 26.2474L11.8457 29.0713C11.8867 29.2498 11.9678 29.4169 12.0828 29.56C12.1978 29.7031 12.3439 29.8187 12.5101 29.8982L15.1395 31.1549L16.9592 33.4195C17.0742 33.5627 17.2203 33.6782 17.3865 33.7577C17.5527 33.8371 17.7348 33.8784 17.9193 33.8784H20.8378L23.4672 35.1351C23.6334 35.2146 23.8155 35.2558 24 35.2558C24.1845 35.2558 24.3666 35.2146 24.5328 35.1351L27.1623 33.8784H30.0808L30.0809 33.8785ZM24.0001 30.792C18.0753 30.792 13.2551 26.0082 13.2551 20.128C13.2551 14.2479 18.0753 9.46397 24.0001 9.46397C29.9249 9.46397 34.7451 14.2479 34.7451 20.128C34.7451 26.0082 29.9249 30.792 24.0001 30.792Z" fill="#D7B56D"/>
<path d="M23.9999 10.6826C18.7522 10.6826 14.4829 14.9197 14.4829 20.1279C14.4829 25.3361 18.7522 29.5732 23.9999 29.5732C29.2476 29.5732 33.5169 25.3361 33.5169 20.1279C33.5169 14.9197 29.2476 10.6826 23.9999 10.6826ZM24.2542 22.9242C24.1402 23.0375 24.0048 23.1274 23.8558 23.1886C23.7067 23.2499 23.5469 23.2813 23.3856 23.2812C23.1068 23.2814 22.8363 23.1872 22.6188 23.0141L19.5488 20.5766L21.083 18.6733L23.2947 20.4294L26.8156 16.9351L28.5522 18.6586L24.2542 22.9242V22.9242Z" fill="#D7B56D"/>
</svg>
