<svg width="32" height="32" viewBox="0 0 32 32" fill="none" xmlns="http://www.w3.org/2000/svg">
<path d="M9.228 28.247C11.3018 29.3984 13.635 30.0017 16.007 30C23.737 30 30 23.723 30 15.993C30 8.263 23.737 2 16.007 2C8.277 2 2 8.263 2 15.993C2 18.479 2.652 20.789 3.78 22.813L2 30L9.228 28.247ZM10.002 9.812C10.1651 9.65942 10.3627 9.54875 10.5781 9.48952C10.7934 9.4303 11.0198 9.42428 11.238 9.472L11.687 9.567C12.135 9.662 12.502 9.961 12.678 10.369L13.561 12.325C13.6681 12.5603 13.7047 12.8216 13.6661 13.0772C13.6276 13.3328 13.5157 13.5718 13.344 13.765L12.801 14.404C12.7126 14.5078 12.6575 14.6358 12.6429 14.7714C12.6283 14.9069 12.6548 15.0437 12.719 15.164C14.322 18.044 16.428 18.982 17.365 19.267C17.5 19.3106 17.6458 19.3076 17.7789 19.2585C17.912 19.2093 18.0247 19.1169 18.099 18.996L18.493 18.384C18.873 17.8 19.621 17.596 20.449 18.004L22.079 18.819C22.705 19.118 22.989 19.851 22.759 20.504C21.93 22.908 19.811 22.609 19.811 22.609C15.111 22.487 11.428 18.153 9.839 15.925C9.105 14.879 8.657 13.615 8.793 12.325C8.929 11.048 9.526 10.246 10.002 9.812Z" fill="#171924"/>
</svg>
