<svg width="32" height="32" viewBox="0 0 32 32" fill="none" xmlns="http://www.w3.org/2000/svg">
<path d="M29.6242 27.8203L24.5428 22.7389C26.604 20.215 27.6165 16.9955 27.3709 13.7462C27.1253 10.4968 25.6405 7.46605 23.2234 5.28059C20.8063 3.09513 17.6417 1.92209 14.3841 2.00402C11.1265 2.08595 8.02498 3.41658 5.72078 5.72078C3.41658 8.02498 2.08595 11.1265 2.00402 14.3841C1.92209 17.6417 3.09513 20.8063 5.28059 23.2234C7.46605 25.6405 10.4968 27.1253 13.7462 27.3709C16.9955 27.6165 20.215 26.604 22.7389 24.5428L27.8203 29.6242C27.9384 29.7433 28.0789 29.8378 28.2337 29.9023C28.3885 29.9668 28.5546 30 28.7223 30C28.89 30 29.056 29.9668 29.2108 29.9023C29.3656 29.8378 29.5061 29.7433 29.6242 29.6242C29.7433 29.5061 29.8378 29.3656 29.9023 29.2108C29.9668 29.056 30 28.89 30 28.7223C30 28.5546 29.9668 28.3885 29.9023 28.2337C29.8378 28.0789 29.7433 27.9384 29.6242 27.8203ZM14.7484 24.9112C12.7384 24.9112 10.7735 24.3152 9.10225 23.1985C7.43098 22.0818 6.12839 20.4946 5.35919 18.6376C4.58999 16.7805 4.38873 14.7371 4.78087 12.7657C5.173 10.7943 6.14092 8.98351 7.56221 7.56221C8.98351 6.14092 10.7943 5.173 12.7657 4.78087C14.7371 4.38873 16.7805 4.58999 18.6376 5.35919C20.4946 6.12839 22.0818 7.43098 23.1985 9.10225C24.3152 10.7735 24.9112 12.7384 24.9112 14.7484C24.9112 17.4438 23.8405 20.0287 21.9346 21.9346C20.0287 23.8405 17.4438 24.9112 14.7484 24.9112Z" fill="white"/>
<path d="M18.5593 13.478H16.0186V10.9373C16.0186 10.6004 15.8848 10.2773 15.6466 10.0391C15.4083 9.80083 15.0852 9.66699 14.7483 9.66699C14.4114 9.66699 14.0882 9.80083 13.85 10.0391C13.6118 10.2773 13.4779 10.6004 13.4779 10.9373V13.478H10.9372C10.6003 13.478 10.2772 13.6119 10.0389 13.8501C9.80071 14.0884 9.66687 14.4115 9.66687 14.7484C9.66687 15.0853 9.80071 15.4084 10.0389 15.6467C10.2772 15.8849 10.6003 16.0188 10.9372 16.0188H13.4779V18.5595C13.4779 18.8964 13.6118 19.2195 13.85 19.4577C14.0882 19.696 14.4114 19.8298 14.7483 19.8298C15.0852 19.8298 15.4083 19.696 15.6466 19.4577C15.8848 19.2195 16.0186 18.8964 16.0186 18.5595V16.0188H18.5593C18.8963 16.0188 19.2194 15.8849 19.4576 15.6467C19.6958 15.4084 19.8297 15.0853 19.8297 14.7484C19.8297 14.4115 19.6958 14.0884 19.4576 13.8501C19.2194 13.6119 18.8963 13.478 18.5593 13.478Z" fill="white"/>
</svg>
