<svg width="32" height="32" viewBox="0 0 32 32" fill="none" xmlns="http://www.w3.org/2000/svg">
<path d="M16 30C23.732 30 30 23.732 30 16C30 8.26801 23.732 2 16 2C8.26801 2 2 8.26801 2 16C2 23.732 8.26801 30 16 30Z" fill="#171924"/>
<path fill-rule="evenodd" clip-rule="evenodd" d="M8.3372 15.8522C12.4185 14.074 15.14 12.9018 16.5017 12.3354C20.3896 10.7183 21.1975 10.4374 21.724 10.4281C21.8399 10.4261 22.0988 10.4548 22.2665 10.5909C22.5154 10.7928 22.5168 11.2311 22.4892 11.5211C22.2785 13.7349 21.3668 19.107 20.903 21.5864C20.7067 22.6355 20.3203 22.9873 19.9463 23.0217C19.1333 23.0965 18.5159 22.4844 17.7285 21.9683C16.4963 21.1606 15.8002 20.6578 14.6041 19.8696C13.2219 18.9587 14.1179 18.4581 14.9057 17.6399C15.1118 17.4258 18.6939 14.1676 18.7633 13.872C18.772 13.8351 18.78 13.6972 18.6981 13.6245C18.6163 13.5518 18.4955 13.5766 18.4083 13.5964C18.2847 13.6245 16.3163 14.9255 12.503 17.4996C11.9443 17.8832 11.4382 18.0702 10.9848 18.0604C10.4849 18.0496 9.52337 17.7777 8.80855 17.5454C7.9318 17.2604 7.23498 17.1097 7.29568 16.6257C7.32729 16.3735 7.67444 16.1157 8.3372 15.8522Z" fill="white"/>
</svg>
