<svg width="20" height="20" viewBox="0 0 20 20" fill="none" xmlns="http://www.w3.org/2000/svg">
<path fill-rule="evenodd" clip-rule="evenodd" d="M1.25 6.66699L8.72084 12.4778C9.08661 12.7622 9.5367 12.9166 10 12.9166C10.4633 12.9166 10.9134 12.7622 11.2792 12.4778L18.75 6.66699V14.9998C18.75 15.3314 18.6183 15.6494 18.3838 15.8835C18.2678 15.9997 18.13 16.0918 17.9784 16.1547C17.8267 16.2176 17.6641 16.2499 17.4999 16.2499H2.50005C2.16847 16.2499 1.85034 16.1182 1.61621 15.8835C1.50008 15.7675 1.40795 15.6298 1.34511 15.4781C1.28228 15.3265 1.24995 15.164 1.25 14.9998V6.66699Z" fill="#D7B56D"/>
<path fill-rule="evenodd" clip-rule="evenodd" d="M18.75 5.00888C18.7487 5.19774 18.7046 5.38384 18.621 5.5532C18.5374 5.72256 18.4165 5.87076 18.2674 5.98666L10.7676 11.82C10.5482 11.9907 10.2782 12.0834 10.0002 12.0834C9.7222 12.0834 9.45216 11.9907 9.23276 11.82L1.73245 5.98666C1.58336 5.87074 1.46249 5.72253 1.37893 5.55318C1.29536 5.38382 1.25128 5.19772 1.25 5.00888V5.00004C1.25 4.66846 1.38171 4.35052 1.61621 4.11639C1.7322 4.0002 1.86998 3.90803 2.02164 3.84516C2.1733 3.78229 2.33587 3.74995 2.50005 3.75H17.4999C17.8315 3.75 18.1497 3.88171 18.3838 4.11639C18.4999 4.23237 18.592 4.37012 18.6549 4.52175C18.7177 4.67338 18.75 4.83591 18.75 5.00004V5.00888Z" fill="#D7B56D"/>
</svg>
