<svg width="48" height="48" viewBox="0 0 48 48" fill="none" xmlns="http://www.w3.org/2000/svg">
<path d="M22.7695 15.3047H25.2305V17.7656H22.7695V15.3047ZM22.7695 20.2266H25.2305V22.6875H22.7695V20.2266ZM22.7695 25.1484H25.2305V27.6094H22.7695V25.1484ZM31.2749 9.15234C31.2749 5.2954 29.4645 3.61056 29.167 3L24 7.51845L18.833 3C18.5095 3.66404 16.7251 5.24962 16.7251 9.15234C16.7251 13.0093 18.5355 14.694 18.833 15.3047L24 10.7862L29.167 15.3047C29.4905 14.6406 31.2749 13.0549 31.2749 9.15234ZM3 12.8438L24 45L15.0334 12.8438H3ZM24 45L45 12.8438H32.9666L24 45Z" fill="#D7B56D"/>
</svg>
