<svg width="32" height="32" viewBox="0 0 32 32" fill="none" xmlns="http://www.w3.org/2000/svg">
<path d="M15.1235 13.0382H16.8774C17.254 13.0382 17.5602 13.3645 17.5602 13.767V17.4926C17.5602 17.8946 17.2544 18.2209 16.8779 18.2209H15.1235C14.9425 18.2208 14.7689 18.144 14.6409 18.0073C14.5129 17.8707 14.4409 17.6854 14.4408 17.4921V13.767C14.4408 13.365 14.7465 13.0382 15.1235 13.0382ZM13.9624 16.8425C13.549 17.1683 12.8309 17.6183 11.8128 17.8287C11.7819 17.8351 11.7502 17.8349 11.7194 17.8282C11.6886 17.8215 11.6594 17.8083 11.6333 17.7895C11.6073 17.7708 11.585 17.7467 11.5677 17.7187C11.5504 17.6907 11.5384 17.6594 11.5324 17.6264C11.5264 17.5935 11.5266 17.5596 11.5329 17.5268C11.5392 17.4939 11.5515 17.4627 11.5691 17.4349C11.5867 17.4071 11.6092 17.3833 11.6354 17.3648C11.6616 17.3463 11.691 17.3335 11.7219 17.3272C12.9897 17.0647 13.7528 16.3885 13.9624 16.1816V15.1433C13.3324 14.726 12.6419 14.4235 11.919 14.2481C11.8883 14.2408 11.8592 14.2273 11.8334 14.2081C11.8077 14.1889 11.7857 14.1644 11.7688 14.1362C11.7518 14.1079 11.7403 14.0764 11.7348 14.0433C11.7293 14.0103 11.7299 13.9764 11.7367 13.9437C11.7434 13.9109 11.7562 13.8799 11.7742 13.8524C11.7921 13.8249 11.815 13.8014 11.8415 13.7833C11.868 13.7653 11.8975 13.7529 11.9285 13.7471C11.9594 13.7412 11.9911 13.7419 12.0218 13.7491C12.7017 13.9131 13.3555 14.1824 13.9624 14.5484V13.8359C13.6365 13.2634 10.3928 7.98719 2.38237 9.17307C2.1532 9.8559 1.24227 13.1015 3.43779 16.1612C3.46274 16.1962 3.47884 16.2375 3.48454 16.281C3.49024 16.3246 3.48534 16.369 3.47033 16.4099C3.46028 16.438 2.46083 19.2097 2.95745 22.825C4.06645 23.0324 10.7104 23.9803 13.982 17.7015C13.9697 17.6325 13.963 17.5624 13.9619 17.4921L13.9624 16.8425ZM29.6181 9.17409C21.6072 7.98872 18.3639 13.2639 18.0381 13.8369V14.5494C18.6451 14.1835 19.2988 13.9143 19.9786 13.7501C20.0406 13.7355 20.1055 13.7479 20.159 13.7844C20.2124 13.8209 20.2502 13.8785 20.2638 13.9447C20.2774 14.0109 20.2659 14.0801 20.2317 14.1372C20.1975 14.1943 20.1435 14.2345 20.0815 14.2491C19.3586 14.4245 18.668 14.7271 18.0381 15.1444V16.1826C18.2477 16.3895 19.0108 17.0657 20.2786 17.3282C20.3095 17.3346 20.3388 17.3474 20.3651 17.3658C20.3913 17.3843 20.4138 17.4081 20.4314 17.4359C20.449 17.4637 20.4613 17.4949 20.4676 17.5278C20.4739 17.5607 20.4741 17.5945 20.4681 17.6275C20.4621 17.6604 20.4501 17.6917 20.4328 17.7197C20.4155 17.7477 20.3932 17.7718 20.3671 17.7906C20.3411 17.8093 20.3119 17.8225 20.2811 17.8292C20.2503 17.8359 20.2186 17.8361 20.1877 17.8297C19.1696 17.6188 18.4515 17.1694 18.0381 16.8435V17.4931C18.0381 17.5652 18.0295 17.6341 18.018 17.7025C21.2896 23.9818 27.9326 23.0339 29.0426 22.8266C29.5396 19.2112 28.5402 16.4395 28.5297 16.4114C28.5147 16.3705 28.5098 16.3261 28.5155 16.2825C28.5212 16.239 28.5373 16.1977 28.5622 16.1627C30.7577 13.103 29.8468 9.85743 29.6176 9.1746L29.6181 9.17409Z" fill="#D7B56D"/>
</svg>
