<svg width="48" height="48" viewBox="0 0 48 48" fill="none" xmlns="http://www.w3.org/2000/svg">
<path d="M43.2677 4.15356C42.428 3.41948 41.3259 3 40.2237 3H39.8038C38.5443 3.10487 37.3896 3.73408 36.5499 4.6779L34.3981 7.19476C35.2903 7.82397 36.1825 8.55805 37.0222 9.397L37.757 8.66292C38.1769 8.24345 38.8591 8.24345 39.279 8.66292C39.6989 9.0824 39.6989 9.76405 39.279 10.1835L38.4393 11.0225C38.0719 10.5506 37.652 10.0262 37.0747 9.50187L37.0222 9.44944L36.6549 9.81648L36.34 10.2884C36.8648 10.8127 37.2847 11.2846 37.652 11.7566L37.7045 11.809L37.0747 12.4382C36.8648 12.6479 36.6024 12.7528 36.2875 12.7528C36.0251 12.7528 35.7626 12.6479 35.5527 12.4382C35.1328 12.0187 35.1328 11.3371 35.5527 10.9176L36.2875 10.1835C35.4477 9.34457 34.608 8.66292 33.7158 8.03371L26.893 16.161L26.3681 16.7378L15.8715 29.1648C16.3439 30.5281 17.0786 31.7341 18.0233 32.7828L31.2491 21.6667L31.8789 21.1423L39.5414 14.6404L40.1712 14.1161L43.3202 11.4419C43.5302 11.2846 43.7401 11.0749 43.8975 10.8652C45.577 8.87266 45.3146 5.83146 43.2677 4.15356ZM3.11809 44.2659C2.96064 44.4232 2.96064 44.633 3.11809 44.8427C3.17057 44.9476 3.27554 45 3.43299 45C3.53795 45 3.64292 44.9476 3.74789 44.8951L17.2361 33.5169C16.2914 32.5206 15.6091 31.367 15.0843 30.161L3.11809 44.2659ZM25.5809 16.5805L26.3681 15.6891C23.2192 14.7978 19.8602 15.6891 17.551 17.9963C14.5594 20.985 13.5098 25.3371 14.8218 29.3221L15.6616 28.3258C14.7694 24.9176 15.7665 21.2996 18.3382 18.7303C20.1751 16.8427 22.9043 16.0037 25.5809 16.5805ZM39.8038 15.3745C42.3755 21.3521 41.011 28.4307 36.3924 33.0449C33.9782 35.4569 30.7767 36.7678 27.3653 36.7678C24.0589 36.7678 21.0149 35.5618 18.6006 33.2547L17.7084 33.9888C20.2801 36.5056 23.6915 37.8689 27.3128 37.8689C30.9867 37.8689 34.503 36.4532 37.1272 33.8315C42.1656 28.7978 43.5302 21.1423 40.6436 14.6929L39.8038 15.3745Z" fill="#D7B56D"/>
<path d="M29.5695 28.3783C29.6744 28.4832 29.8319 28.5356 29.9368 28.5356C30.0418 28.5356 30.1993 28.4832 30.3042 28.3783C32.0886 26.5955 32.8234 24.1311 32.2986 21.6667L31.3539 22.4532C31.5638 24.3408 30.934 26.2285 29.5695 27.5918C29.3595 27.8015 29.3595 28.1686 29.5695 28.3783ZM7.68396 10.2884C14.4543 3.52436 25.1084 2.42324 33.0858 7.66669L33.7681 6.82773C25.3708 1.21725 14.1394 2.3708 6.9492 9.50189C6.73926 9.71163 6.73926 10.0262 6.9492 10.236C7.15913 10.4981 7.47403 10.4981 7.68396 10.2884Z" fill="#D7B56D"/>
</svg>
