<svg width="22" height="22" viewBox="0 0 22 22" fill="none" xmlns="http://www.w3.org/2000/svg">
<path d="M11 0.5C5.21007 0.5 0.5 5.21007 0.5 11C0.5 16.7899 5.21007 21.5 11 21.5C16.7899 21.5 21.5 16.7899 21.5 11C21.5 5.21007 16.7899 0.5 11 0.5ZM15.5938 11.8749H11.8749V15.5938C11.8749 16.0768 11.483 16.4687 11 16.4687C10.517 16.4687 10.1251 16.0768 10.1251 15.5938V11.8749H6.40625C5.92321 11.8749 5.5313 11.483 5.5313 11C5.5313 10.517 5.92321 10.1251 6.40625 10.1251H10.1251V6.40625C10.1251 5.92321 10.517 5.5313 11 5.5313C11.483 5.5313 11.8749 5.92321 11.8749 6.40625V10.1251H15.5938C16.0768 10.1251 16.4687 10.517 16.4687 11C16.4687 11.483 16.0768 11.8749 15.5938 11.8749Z" fill="#D7B56D"/>
</svg>
