<svg width="32" height="32" viewBox="0 0 32 32" fill="none" xmlns="http://www.w3.org/2000/svg">
<path d="M18.6667 2H13.3333C8.2 2 4 6.40816 4 11.7959V15.9942C4 19.7726 6.1 23.2362 9.33333 24.8455V29.5335C9.33333 29.9534 9.83333 30.1633 10.1 29.8484L13.9667 25.7901H18.6667C23.8 25.7901 28 21.3819 28 15.9942V11.7959C28 6.40816 23.8 2 18.6667 2ZM22.1667 20.3673L20.8 21.7668C19.3667 23.2362 15.6667 21.5569 12.4 18.0583C9.13333 14.5598 7.7 10.6414 9.06667 9.17201L10.4 7.77259C10.9 7.24781 11.7333 7.2828 12.3 7.80758L14.2333 9.9067C14.9333 10.6414 14.6333 11.9009 13.7333 12.1808C13.1 12.3907 12.6667 13.1254 12.8667 13.7901C13.2 15.3294 15.0667 17.2886 16.4667 17.6735C17.1 17.8134 17.8 17.4636 18.0333 16.7988C18.3333 15.8542 19.5333 15.5743 20.2 16.309L22.1333 18.4082C22.6667 18.898 22.6667 19.7726 22.1667 20.3673ZM17.2 8.64723C17.0667 8.64723 16.9333 8.64723 16.8 8.68222C16.5667 8.7172 16.3333 8.50729 16.3 8.26239C16.2667 8.01749 16.4667 7.77259 16.7 7.73761C16.8667 7.70262 17.0333 7.70262 17.2 7.70262C19.6333 7.70262 21.6333 9.80175 21.6333 12.3557C21.6333 12.5306 21.6333 12.7055 21.6 12.8805C21.5667 13.1254 21.3333 13.3353 21.1 13.3003C20.8667 13.2653 20.6667 13.0204 20.7 12.7755C20.7 12.6356 20.7333 12.4956 20.7333 12.3557C20.7667 10.3265 19.1667 8.64723 17.2 8.64723ZM19.8667 12.3907C19.8667 12.6356 19.6667 12.8455 19.4333 12.8455C19.2 12.8455 19 12.6356 19 12.3907C19 11.3761 18.2 10.5364 17.2333 10.5364C17 10.5364 16.8 10.3265 16.8 10.0816C16.8 9.83673 17 9.62682 17.2333 9.62682C18.6667 9.59184 19.8667 10.8513 19.8667 12.3907ZM23.2667 13.895C23.2 14.1399 22.9667 14.3149 22.7 14.2449C22.4667 14.1749 22.3333 13.93 22.4 13.6851C22.5 13.2653 22.5333 12.8455 22.5333 12.3907C22.5333 9.31195 20.1333 6.793 17.2 6.793H16.8C16.5667 6.793 16.3333 6.61808 16.3333 6.37318C16.3333 6.12828 16.5 5.88338 16.7333 5.88338C16.9 5.88338 17.0667 5.8484 17.2 5.8484C20.6333 5.8484 23.4333 8.78717 23.4333 12.3907C23.4333 12.8805 23.3667 13.4052 23.2667 13.895Z" fill="#171924"/>
</svg>
