<svg width="20" height="20" viewBox="0 0 20 20" fill="none" xmlns="http://www.w3.org/2000/svg">
<path fill-rule="evenodd" clip-rule="evenodd" d="M8.45484 17.5893C8.77195 17.9104 9.09422 18.2271 9.42938 18.5281C9.5863 18.671 9.78946 18.75 10 18.75C10.2105 18.75 10.4137 18.671 10.5706 18.5281C11.6827 17.5012 12.7196 16.3929 13.673 15.2121C14.4464 14.2471 15.237 13.1263 15.8386 11.9539C16.4324 10.7902 16.875 9.51108 16.875 8.24943C16.875 6.39307 16.1507 4.61273 14.8614 3.30009C13.572 1.98744 11.8234 1.25 10 1.25C8.17664 1.25 6.42795 1.98744 5.13864 3.30009C3.84933 4.61273 3.125 6.39307 3.125 8.24943C3.125 9.51108 3.56672 10.7902 4.16227 11.9539C4.76297 13.1263 5.55273 14.2471 6.32703 15.2112C6.99589 16.0405 7.7061 16.8342 8.45484 17.5893ZM7.42188 8.24943C7.42188 7.55329 7.6935 6.88567 8.17699 6.39343C8.66048 5.90118 9.31624 5.62464 10 5.62464C10.6838 5.62464 11.3395 5.90118 11.823 6.39343C12.3065 6.88567 12.5781 7.55329 12.5781 8.24943C12.5781 8.94557 12.3065 9.61319 11.823 10.1054C11.3395 10.5977 10.6838 10.8742 10 10.8742C9.31624 10.8742 8.66048 10.5977 8.17699 10.1054C7.6935 9.61319 7.42188 8.94557 7.42188 8.24943Z" fill="#D7B56D"/>
</svg>
