<svg width="48" height="48" viewBox="0 0 48 48" fill="none" xmlns="http://www.w3.org/2000/svg">
<path d="M9.57828 16.8678H39.4221C39.602 16.8678 39.7799 16.8301 39.9451 16.7568C40.1103 16.6836 40.2592 16.5765 40.3827 16.4419C40.5062 16.3074 40.6016 16.1484 40.6632 15.9746C40.7248 15.8008 40.7513 15.6159 40.7409 15.4312L40.7244 15.0787C40.5098 11.5113 37.6105 8.71695 34.1229 8.71695H32.4256V7.35847C32.4256 6.99818 32.2864 6.65265 32.0387 6.39789C31.791 6.14312 31.455 6 31.1047 6C30.7544 6 30.4185 6.14312 30.1708 6.39789C29.923 6.65265 29.7839 6.99818 29.7839 7.35847V8.71695H19.2171V7.35847C19.2171 6.99818 19.078 6.65265 18.8303 6.39789C18.5826 6.14312 18.2466 6 17.8963 6C17.546 6 17.21 6.14312 16.9623 6.39789C16.7146 6.65265 16.5755 6.99818 16.5755 7.35847V8.71695H14.8782C11.3905 8.71695 8.49057 11.512 8.27593 15.0814L8.25942 15.4319C8.24888 15.6166 8.27519 15.8015 8.33673 15.9754C8.39828 16.1493 8.49375 16.3083 8.61729 16.4428C8.74082 16.5773 8.8898 16.6844 9.05507 16.7575C9.22033 16.8306 9.39839 16.8681 9.57828 16.8678ZM40.9477 20.9092C40.9392 20.5549 40.7964 20.2181 40.5497 19.9706C40.3031 19.7231 39.9721 19.5846 39.6275 19.5847H9.37355C9.02894 19.5848 8.69798 19.7233 8.45124 19.9707C8.2045 20.2182 8.06149 20.5549 8.05271 20.9092C7.93339 25.7161 8.01668 30.5259 8.30235 35.3254C8.5084 38.7351 11.164 41.4657 14.478 41.6776C21.1527 42.1077 27.8471 42.1075 34.5218 41.6769C37.8371 41.465 40.492 38.7338 40.6987 35.3247C40.9827 30.6257 41.0665 25.7753 40.9477 20.9092ZM31.1047 27.7356C30.5793 27.7356 30.0753 27.5209 29.7038 27.1387C29.3322 26.7566 29.1235 26.2383 29.1235 25.6979C29.1235 25.1574 29.3322 24.6391 29.7038 24.257C30.0753 23.8748 30.5793 23.6601 31.1047 23.6601C31.6302 23.6601 32.1341 23.8748 32.5057 24.257C32.8773 24.6391 33.086 25.1574 33.086 25.6979C33.086 26.2383 32.8773 26.7566 32.5057 27.1387C32.1341 27.5209 31.6302 27.7356 31.1047 27.7356ZM33.086 32.4902C33.086 33.0307 32.8773 33.549 32.5057 33.9311C32.1341 34.3132 31.6302 34.5279 31.1047 34.5279C30.5793 34.5279 30.0753 34.3132 29.7038 33.9311C29.3322 33.549 29.1235 33.0307 29.1235 32.4902C29.1235 31.9498 29.3322 31.4315 29.7038 31.0493C30.0753 30.6672 30.5793 30.4525 31.1047 30.4525C31.6302 30.4525 32.1341 30.6672 32.5057 31.0493C32.8773 31.4315 33.086 31.9498 33.086 32.4902ZM17.8963 30.4525C18.4218 30.4525 18.9257 30.6672 19.2973 31.0493C19.6688 31.4315 19.8776 31.9498 19.8776 32.4902C19.8776 33.0307 19.6688 33.549 19.2973 33.9311C18.9257 34.3132 18.4218 34.5279 17.8963 34.5279C17.3708 34.5279 16.8669 34.3132 16.4953 33.9311C16.1238 33.549 15.915 33.0307 15.915 32.4902C15.915 31.9498 16.1238 31.4315 16.4953 31.0493C16.8669 30.6672 17.3708 30.4525 17.8963 30.4525ZM15.915 25.6979C15.915 25.4303 15.9663 25.1653 16.0658 24.9181C16.1654 24.6708 16.3114 24.4462 16.4953 24.257C16.6793 24.0678 16.8977 23.9177 17.1381 23.8153C17.3785 23.7129 17.6361 23.6601 17.8963 23.6601C18.1565 23.6601 18.4141 23.7129 18.6545 23.8153C18.8949 23.9177 19.1133 24.0678 19.2973 24.257C19.4812 24.4462 19.6272 24.6708 19.7267 24.9181C19.8263 25.1653 19.8776 25.4303 19.8776 25.6979C19.8776 26.2383 19.6688 26.7566 19.2973 27.1387C18.9257 27.5209 18.4218 27.7356 17.8963 27.7356C17.3708 27.7356 16.8669 27.5209 16.4953 27.1387C16.1238 26.7566 15.915 26.2383 15.915 25.6979ZM22.5192 32.4902C22.5192 31.9498 22.728 31.4315 23.0995 31.0493C23.4711 30.6672 23.975 30.4525 24.5005 30.4525C25.026 30.4525 25.5299 30.6672 25.9015 31.0493C26.273 31.4315 26.4818 31.9498 26.4818 32.4902C26.4818 33.0307 26.273 33.549 25.9015 33.9311C25.5299 34.3132 25.026 34.5279 24.5005 34.5279C23.975 34.5279 23.4711 34.3132 23.0995 33.9311C22.728 33.549 22.5192 33.0307 22.5192 32.4902ZM24.5005 27.7356C23.975 27.7356 23.4711 27.5209 23.0995 27.1387C22.728 26.7566 22.5192 26.2383 22.5192 25.6979C22.5192 25.1574 22.728 24.6391 23.0995 24.257C23.4711 23.8748 23.975 23.6601 24.5005 23.6601C25.026 23.6601 25.5299 23.8748 25.9015 24.257C26.273 24.6391 26.4818 25.1574 26.4818 25.6979C26.4818 26.2383 26.273 26.7566 25.9015 27.1387C25.5299 27.5209 25.026 27.7356 24.5005 27.7356Z" fill="#D7B56D"/>
</svg>
