<svg width="20" height="20" viewBox="0 0 20 20" fill="none" xmlns="http://www.w3.org/2000/svg">
<path d="M18.5495 9.50051L18.5489 9.49984L14.977 5.83048C14.7094 5.5556 14.2766 5.55662 14.0102 5.83288C13.7439 6.10911 13.7449 6.55589 14.0125 6.8308L16.4107 9.29435H1.93359C1.55604 9.29435 1.25 9.61027 1.25 10C1.25 10.3897 1.55604 10.7056 1.93359 10.7056H16.4106L14.0125 13.1692C13.7449 13.4441 13.7439 13.8909 14.0102 14.1671C14.2766 14.4434 14.7094 14.4444 14.977 14.1695L18.5489 10.5002L18.5495 10.4995C18.8173 10.2237 18.8164 9.77543 18.5495 9.50051Z" fill="#F0C363"/>
</svg>
